<svg width="24" height="24" viewBox="0 0 24 24" fill="none" xmlns="http://www.w3.org/2000/svg">
<path fill-rule="evenodd" clip-rule="evenodd" d="M13.5704 4.12859L13.5821 3.00314L21.0851 2.9248L21.0068 10.4278L19.8813 10.4395L19.9397 4.8576L12.9936 11.8038L12.2061 11.0163L19.1522 4.0701L13.5704 4.12859ZM6.75 5.24997H12V6.37497H6.75C6.54289 6.37497 6.375 6.54286 6.375 6.74997V17.25C6.375 17.4571 6.54289 17.625 6.75 17.625H17.25C17.4571 17.625 17.625 17.4571 17.625 17.25V12H18.75V17.25C18.75 18.0784 18.0784 18.75 17.25 18.75H6.75C5.92157 18.75 5.25 18.0784 5.25 17.25V6.74997C5.25 5.92154 5.92157 5.24997 6.75 5.24997Z" fill="#6C869A"/>
</svg>
