<svg width="24" height="24" viewBox="0 0 24 24" fill="none" xmlns="http://www.w3.org/2000/svg">
<path fill-rule="evenodd" clip-rule="evenodd" d="M12 13.75C12 13.1977 12.4477 12.75 13 12.75H14.75C15.3023 12.75 15.75 13.1977 15.75 13.75V15.5C15.75 16.0523 15.3023 16.5 14.75 16.5H13C12.4477 16.5 12 16.0523 12 15.5V13.75ZM13.125 15.375V13.875H14.625V15.375H13.125ZM8.625 6H15.375V4.5H16.5V6H17.25C18.075 6 18.75 6.675 18.75 7.5V18C18.75 18.825 18.075 19.5 17.25 19.5H6.75C5.925 19.5 5.25 18.825 5.25 18V7.5C5.25 6.675 5.925 6 6.75 6H7.5V4.5H8.625V6ZM6.375 17.375C6.375 17.9273 6.82272 18.375 7.375 18.375H16.625C17.1773 18.375 17.625 17.9273 17.625 17.375V10.875H6.375V17.375ZM6.375 9.75H17.625V8.125C17.625 7.57272 17.1773 7.125 16.625 7.125H7.375C6.82272 7.125 6.375 7.57272 6.375 8.125V9.75Z" fill="#6C869A"/>
<mask id="mask0_1596_128" style="mask-type:luminance" maskUnits="userSpaceOnUse" x="5" y="4" width="14" height="16">
<path fill-rule="evenodd" clip-rule="evenodd" d="M12 13.75C12 13.1977 12.4477 12.75 13 12.75H14.75C15.3023 12.75 15.75 13.1977 15.75 13.75V15.5C15.75 16.0523 15.3023 16.5 14.75 16.5H13C12.4477 16.5 12 16.0523 12 15.5V13.75ZM13.125 15.375V13.875H14.625V15.375H13.125ZM8.625 6H15.375V4.5H16.5V6H17.25C18.075 6 18.75 6.675 18.75 7.5V18C18.75 18.825 18.075 19.5 17.25 19.5H6.75C5.925 19.5 5.25 18.825 5.25 18V7.5C5.25 6.675 5.925 6 6.75 6H7.5V4.5H8.625V6ZM6.375 17.375C6.375 17.9273 6.82272 18.375 7.375 18.375H16.625C17.1773 18.375 17.625 17.9273 17.625 17.375V10.875H6.375V17.375ZM6.375 9.75H17.625V8.125C17.625 7.57272 17.1773 7.125 16.625 7.125H7.375C6.82272 7.125 6.375 7.57272 6.375 8.125V9.75Z" fill="white"/>
</mask>
<g mask="url(#mask0_1596_128)">
</g>
</svg>
