<svg width="24" height="24" viewBox="0 0 24 24" fill="none" xmlns="http://www.w3.org/2000/svg">
<path fill-rule="evenodd" clip-rule="evenodd" d="M18 6.1875H6C4.87216 6.1875 3.9375 7.06375 3.9375 8.15625V16.5938C3.9375 17.6863 4.87216 18.5625 6 18.5625H18C19.1278 18.5625 20.0625 17.6863 20.0625 16.5938V8.15625C20.0625 7.06375 19.1278 6.1875 18 6.1875ZM18 7.3125C18.5222 7.3125 18.9375 7.70188 18.9375 8.15625V16.5938C18.9375 17.0481 18.5222 17.4375 18 17.4375H6C5.47784 17.4375 5.0625 17.0481 5.0625 16.5938V8.15625C5.0625 7.70188 5.47784 7.3125 6 7.3125H18ZM12 13.575L17.4 10.2V8.85L12 12.225L6.6 8.85V10.2L12 13.575Z" fill="#6C869A"/>
<mask id="mask0_804_546" style="mask-type:luminance" maskUnits="userSpaceOnUse" x="3" y="6" width="18" height="13">
<path fill-rule="evenodd" clip-rule="evenodd" d="M18 6.1875H6C4.87216 6.1875 3.9375 7.06375 3.9375 8.15625V16.5938C3.9375 17.6863 4.87216 18.5625 6 18.5625H18C19.1278 18.5625 20.0625 17.6863 20.0625 16.5938V8.15625C20.0625 7.06375 19.1278 6.1875 18 6.1875ZM18 7.3125C18.5222 7.3125 18.9375 7.70188 18.9375 8.15625V16.5938C18.9375 17.0481 18.5222 17.4375 18 17.4375H6C5.47784 17.4375 5.0625 17.0481 5.0625 16.5938V8.15625C5.0625 7.70188 5.47784 7.3125 6 7.3125H18ZM12 13.575L17.4 10.2V8.85L12 12.225L6.6 8.85V10.2L12 13.575Z" fill="white"/>
</mask>
<g mask="url(#mask0_804_546)">
<path fill-rule="evenodd" clip-rule="evenodd" d="M16.5 3C17.3284 3 18 3.67157 18 4.5V19.5C18 20.3284 17.3284 21 16.5 21H7.5C6.67157 21 6 20.3284 6 19.5V4.5C6 3.67157 6.67157 3 7.5 3H16.5ZM16.5 4.125H7.5C7.31591 4.125 7.16279 4.25766 7.13104 4.43259L7.125 4.5V19.5C7.125 19.6841 7.25766 19.8372 7.43259 19.869L7.5 19.875H16.5C16.6841 19.875 16.8372 19.7423 16.869 19.5674L16.875 19.5V4.5C16.875 4.31591 16.7423 4.16279 16.5674 4.13104L16.5 4.125ZM12 18.75C12.6213 18.75 13.125 18.2463 13.125 17.625C13.125 17.0037 12.6213 16.5 12 16.5C11.3787 16.5 10.875 17.0037 10.875 17.625C10.875 18.2463 11.3787 18.75 12 18.75Z" fill="#6C869A"/>
</g>
</svg>
