<svg width="24" height="24" viewBox="0 0 24 24" fill="none" xmlns="http://www.w3.org/2000/svg">
<path fill-rule="evenodd" clip-rule="evenodd" d="M12.2308 3C15.6719 3 18.4615 5.98477 18.4615 9.66667C18.4615 12.1213 16.3846 15.899 12.2308 21L11.7517 20.406L11.2624 19.7867C7.75413 15.2958 6 11.9225 6 9.66667C6 5.98477 8.78961 3 12.2308 3ZM12.2308 4.125C9.42857 4.125 7.125 6.58972 7.125 9.66667C7.125 11.5132 8.64441 14.5108 11.7095 18.5252L12.2302 19.1985L12.3158 19.0898L12.7733 18.4968C15.7507 14.5921 17.2635 11.6548 17.334 9.80056L17.3365 9.66667C17.3365 6.58972 15.033 4.125 12.2308 4.125ZM12.2308 6.46154C13.7602 6.46154 15 7.70136 15 9.23077C15 10.7602 13.7602 12 12.2308 12C10.7014 12 9.46154 10.7602 9.46154 9.23077C9.46154 7.70136 10.7014 6.46154 12.2308 6.46154ZM12.2308 7.58654C11.3227 7.58654 10.5865 8.32269 10.5865 9.23077C10.5865 10.1389 11.3227 10.875 12.2308 10.875C13.1389 10.875 13.875 10.1389 13.875 9.23077C13.875 8.32269 13.1389 7.58654 12.2308 7.58654Z" fill="#6C869A"/>
</svg>
