<svg width="24" height="24" viewBox="0 0 24 24" fill="none" xmlns="http://www.w3.org/2000/svg">
<path fill-rule="evenodd" clip-rule="evenodd" d="M16.5 3C17.3284 3 18 3.67157 18 4.5V19.5C18 20.3284 17.3284 21 16.5 21H7.5C6.67157 21 6 20.3284 6 19.5V4.5C6 3.67157 6.67157 3 7.5 3H16.5ZM16.5 4.125H7.5C7.31591 4.125 7.16279 4.25766 7.13104 4.43259L7.125 4.5V19.5C7.125 19.6841 7.25766 19.8372 7.43259 19.869L7.5 19.875H16.5C16.6841 19.875 16.8372 19.7423 16.869 19.5674L16.875 19.5V4.5C16.875 4.31591 16.7423 4.16279 16.5674 4.13104L16.5 4.125ZM12 18.75C12.6213 18.75 13.125 18.2463 13.125 17.625C13.125 17.0037 12.6213 16.5 12 16.5C11.3787 16.5 10.875 17.0037 10.875 17.625C10.875 18.2463 11.3787 18.75 12 18.75Z" fill="#6C869A"/>
</svg>
